# xmcd
#
# Track frame offsets:
#  150
#  25004
#  46006
#  62433
#  87410
#  104412
#  131452
#  144279
#  169943
#  194620
#  216222
#
# Disc length: 3122 seconds
#
# Revision: 0
# Processed by: cddbd v1.4PL0 Copyright (c) Steve Scherf et al.
# Submitted via: AltoMP3_Maker 3.0
#
DISCID=930c300b
DTITLE=许巍 - 执着
DYEAR=1900
DGENRE=
TTITLE0=那一年
TTITLE1=我的秋天
TTITLE2=水妖
TTITLE3=雨天
TTITLE4=我思念的城市
TTITLE5=故乡
TTITLE6=树
TTITLE7=青鸟2
TTITLE8=闪亮的瞬间
TTITLE9=遥远
TTITLE10=方向
EXTD=
EXTT0=
EXTT1=
EXTT2=
EXTT3=
EXTT4=
EXTT5=
EXTT6=
EXTT7=
EXTT8=
EXTT9=
EXTT10=
PLAYORDER=
